<?xml version="1.0" encoding="UTF-8"?>
<svg xmlns="http://www.w3.org/2000/svg" xmlns:xlink="http://www.w3.org/1999/xlink" width="55px" height="55px" viewBox="0 0 55 55" version="1.1">
<g id="surface1">
<path style=" stroke:none;fill-rule:evenodd;fill:rgb(1.568627%,45.490196%,98.823529%);fill-opacity:1;" d="M 18.472656 0.03125 C 17.753906 0.0429688 15.484375 0.136719 15.238281 0.160156 C 15.140625 0.171875 14.820312 0.191406 14.527344 0.207031 C 12.390625 0.320312 9.414062 0.808594 8.386719 1.210938 C 8.300781 1.246094 8.101562 1.308594 7.953125 1.355469 C 7.800781 1.398438 7.585938 1.472656 7.472656 1.523438 C 7.355469 1.574219 7.222656 1.628906 7.171875 1.652344 C 5.511719 2.339844 3.953125 3.515625 3.019531 4.789062 C 2.949219 4.890625 2.816406 5.070312 2.730469 5.1875 C 2.539062 5.445312 2.175781 6.054688 2.183594 6.089844 C 2.191406 6.105469 2.164062 6.148438 2.132812 6.1875 C 2.050781 6.277344 1.605469 7.21875 1.605469 7.296875 C 1.605469 7.332031 1.585938 7.378906 1.5625 7.40625 C 1.46875 7.5 1.03125 8.9375 0.828125 9.808594 C 0.414062 11.597656 0.152344 14.285156 0.0507812 17.738281 C 0 19.4375 0 35.472656 0.046875 37.171875 C 0.0859375 38.488281 0.109375 39.011719 0.207031 40.539062 C 0.371094 43.101562 0.886719 45.972656 1.40625 47.207031 C 1.421875 47.246094 1.4375 47.296875 1.445312 47.324219 C 1.554688 47.820312 2.59375 49.742188 2.96875 50.136719 C 3.011719 50.179688 3.089844 50.277344 3.140625 50.351562 C 3.265625 50.53125 3.988281 51.332031 4.027344 51.335938 C 4.042969 51.335938 4.199219 51.46875 4.375 51.632812 C 4.550781 51.796875 4.707031 51.929688 4.722656 51.929688 C 4.738281 51.929688 4.8125 51.980469 4.886719 52.042969 C 4.957031 52.105469 5.132812 52.234375 5.269531 52.324219 C 5.410156 52.417969 5.582031 52.53125 5.652344 52.582031 C 7.027344 53.523438 10.171875 54.425781 12.878906 54.652344 C 13.019531 54.664062 13.480469 54.707031 13.910156 54.742188 C 16.5 54.964844 17.21875 54.976562 27.476562 54.976562 C 37.792969 54.976562 38.292969 54.96875 41.042969 54.746094 C 42.238281 54.648438 42.3125 54.640625 43.222656 54.515625 C 44.25 54.375 44.710938 54.285156 45.722656 54.039062 C 47.304688 53.65625 48.820312 52.992188 49.867188 52.226562 C 50.238281 51.957031 50.234375 51.960938 50.355469 51.847656 C 50.417969 51.792969 50.480469 51.746094 50.5 51.746094 C 50.679688 51.738281 52.164062 50.054688 52.5 49.46875 C 52.542969 49.398438 52.625 49.257812 52.6875 49.15625 C 52.867188 48.859375 53.394531 47.773438 53.394531 47.703125 C 53.394531 47.667969 53.414062 47.621094 53.4375 47.59375 C 53.523438 47.507812 53.933594 46.195312 54.109375 45.445312 C 54.363281 44.359375 54.582031 42.957031 54.699219 41.640625 C 54.769531 40.871094 54.789062 40.613281 54.839844 39.714844 C 54.855469 39.460938 54.875 39.132812 54.886719 38.980469 C 55.015625 37.066406 55.015625 17.539062 54.886719 16.085938 C 54.878906 15.972656 54.855469 15.59375 54.839844 15.238281 C 54.824219 14.886719 54.777344 14.269531 54.742188 13.863281 C 54.707031 13.460938 54.667969 13.019531 54.65625 12.878906 C 54.644531 12.742188 54.625 12.566406 54.609375 12.488281 C 54.597656 12.414062 54.578125 12.25 54.5625 12.121094 C 54.527344 11.789062 54.308594 10.390625 54.289062 10.355469 C 54.277344 10.339844 54.257812 10.257812 54.246094 10.171875 C 54.199219 9.902344 54.078125 9.386719 53.976562 9.050781 C 53.925781 8.875 53.878906 8.691406 53.867188 8.640625 C 53.769531 8.074219 52.796875 5.820312 52.648438 5.820312 C 52.621094 5.820312 52.613281 5.808594 52.628906 5.792969 C 52.644531 5.78125 52.605469 5.691406 52.546875 5.597656 C 52.199219 5.066406 51.839844 4.582031 51.789062 4.582031 C 51.765625 4.582031 51.746094 4.5625 51.746094 4.542969 C 51.746094 4.449219 51.101562 3.773438 50.621094 3.363281 C 50.199219 3 50.097656 2.921875 49.773438 2.707031 C 49.609375 2.597656 49.417969 2.46875 49.347656 2.417969 C 47.992188 1.496094 45.277344 0.691406 42.511719 0.390625 C 42.382812 0.375 42.105469 0.347656 41.890625 0.324219 C 41.441406 0.273438 40.441406 0.199219 39.714844 0.160156 C 39.4375 0.144531 39.078125 0.125 38.914062 0.113281 C 37.703125 0.0195312 22.191406 -0.0390625 18.472656 0.03125 M 15.601562 17.382812 C 15.882812 23.214844 17.402344 27.5 20.160156 30.242188 C 21.257812 31.332031 22.839844 32.289062 23.914062 32.515625 L 24.0625 32.550781 L 24.0625 16.730469 L 29.976562 16.730469 L 29.976562 25.757812 L 30.167969 25.730469 C 33.457031 25.261719 37.148438 21.488281 38.507812 17.199219 L 38.660156 16.730469 L 44.605469 16.730469 L 44.574219 16.9375 C 43.992188 20.824219 40.703125 25.589844 37.019531 27.886719 C 36.597656 28.148438 36.601562 28.136719 36.929688 28.296875 C 39.460938 29.527344 42.183594 32.054688 43.835938 34.707031 C 44.734375 36.144531 45.757812 38.457031 45.953125 39.492188 L 45.980469 39.644531 L 39.441406 39.644531 L 39.285156 39.199219 C 37.835938 35.039062 34.167969 31.902344 30.285156 31.507812 L 29.976562 31.476562 L 29.976562 39.660156 L 28.773438 39.632812 C 18.449219 39.390625 11.816406 33.453125 9.832031 22.675781 C 9.542969 21.105469 9.257812 18.246094 9.257812 16.925781 L 9.257812 16.730469 L 15.570312 16.730469 L 15.601562 17.382812 "/>
<path style=" stroke:none;fill-rule:evenodd;fill:rgb(32.54902%,64.313725%,98.823529%);fill-opacity:1;" d="M 9.269531 16.914062 C 9.269531 17.027344 9.28125 17.074219 9.289062 17.015625 C 9.300781 16.957031 9.300781 16.867188 9.289062 16.808594 C 9.28125 16.753906 9.269531 16.800781 9.269531 16.914062 M 15.550781 17.027344 C 15.554688 17.203125 15.5625 17.269531 15.570312 17.175781 C 15.582031 17.078125 15.582031 16.9375 15.570312 16.855469 C 15.558594 16.773438 15.550781 16.851562 15.550781 17.027344 M 9.320312 17.875 C 9.320312 18.0625 9.328125 18.140625 9.335938 18.046875 C 9.347656 17.953125 9.347656 17.796875 9.335938 17.703125 C 9.328125 17.609375 9.320312 17.6875 9.320312 17.875 M 15.597656 17.988281 C 15.597656 18.140625 15.605469 18.195312 15.617188 18.113281 C 15.625 18.03125 15.625 17.910156 15.617188 17.839844 C 15.605469 17.769531 15.597656 17.839844 15.597656 17.988281 M 38.050781 18.449219 C 37.972656 18.617188 37.988281 18.65625 38.070312 18.5 C 38.109375 18.429688 38.132812 18.363281 38.121094 18.351562 C 38.109375 18.339844 38.078125 18.386719 38.050781 18.449219 M 9.363281 18.675781 C 9.363281 18.804688 9.371094 18.847656 9.382812 18.78125 C 9.394531 18.710938 9.394531 18.605469 9.382812 18.550781 C 9.371094 18.492188 9.363281 18.550781 9.363281 18.675781 M 15.640625 18.699219 C 15.640625 18.8125 15.652344 18.859375 15.660156 18.804688 C 15.671875 18.746094 15.671875 18.652344 15.660156 18.597656 C 15.652344 18.539062 15.640625 18.585938 15.640625 18.699219 M 37.707031 19.183594 C 37.589844 19.421875 37.503906 19.617188 37.515625 19.617188 C 37.546875 19.617188 37.960938 18.785156 37.9375 18.765625 C 37.929688 18.757812 37.824219 18.945312 37.707031 19.183594 M 15.6875 19.203125 C 15.6875 19.316406 15.695312 19.363281 15.707031 19.308594 C 15.71875 19.25 15.71875 19.15625 15.707031 19.101562 C 15.695312 19.042969 15.6875 19.089844 15.6875 19.203125 M 9.410156 19.296875 C 9.410156 19.410156 9.417969 19.457031 9.429688 19.398438 C 9.4375 19.34375 9.4375 19.25 9.429688 19.191406 C 9.417969 19.136719 9.410156 19.183594 9.410156 19.296875 M 9.453125 19.824219 C 9.453125 19.921875 9.464844 19.960938 9.472656 19.902344 C 9.484375 19.84375 9.484375 19.761719 9.472656 19.71875 C 9.460938 19.675781 9.453125 19.722656 9.453125 19.824219 M 9.5 20.257812 C 9.5 20.347656 9.507812 20.382812 9.519531 20.339844 C 9.53125 20.292969 9.53125 20.222656 9.519531 20.179688 C 9.507812 20.132812 9.5 20.171875 9.5 20.257812 M 43.183594 20.878906 C 43.078125 21.09375 43.003906 21.265625 43.015625 21.265625 C 43.046875 21.265625 43.414062 20.527344 43.394531 20.507812 C 43.382812 20.5 43.289062 20.664062 43.183594 20.878906 M 36.621094 21.039062 C 36.566406 21.113281 36.53125 21.175781 36.546875 21.175781 C 36.558594 21.175781 36.613281 21.113281 36.667969 21.039062 C 36.71875 20.960938 36.753906 20.898438 36.742188 20.898438 C 36.730469 20.898438 36.675781 20.960938 36.621094 21.039062 M 35.585938 22.378906 L 35.453125 22.527344 L 35.601562 22.390625 C 35.683594 22.320312 35.75 22.25 35.75 22.242188 C 35.75 22.207031 35.710938 22.238281 35.585938 22.378906 M 34.945312 23.066406 L 34.488281 23.535156 L 34.960938 23.078125 C 35.21875 22.828125 35.429688 22.613281 35.429688 22.609375 C 35.429688 22.574219 35.371094 22.628906 34.945312 23.066406 M 34.257812 23.707031 L 34.121094 23.855469 L 34.273438 23.722656 C 34.355469 23.648438 34.421875 23.582031 34.421875 23.574219 C 34.421875 23.539062 34.382812 23.570312 34.257812 23.707031 M 40.71875 24.578125 L 40.585938 24.726562 L 40.734375 24.59375 C 40.816406 24.519531 40.882812 24.453125 40.882812 24.445312 C 40.882812 24.40625 40.84375 24.4375 40.71875 24.578125 M 40.308594 25.035156 L 40.082031 25.277344 L 40.320312 25.050781 C 40.546875 24.839844 40.582031 24.796875 40.550781 24.796875 C 40.542969 24.796875 40.433594 24.902344 40.308594 25.035156 M 32.222656 25.070312 C 32.082031 25.144531 31.984375 25.203125 32.003906 25.207031 C 32.054688 25.210938 32.496094 24.984375 32.496094 24.957031 C 32.496094 24.925781 32.503906 24.921875 32.222656 25.070312 M 39.207031 26.136719 L 38.980469 26.378906 L 39.222656 26.148438 C 39.445312 25.9375 39.484375 25.894531 39.449219 25.894531 C 39.441406 25.894531 39.332031 26.003906 39.207031 26.136719 M 17.328125 26.054688 C 17.328125 26.082031 17.359375 26.152344 17.394531 26.214844 C 17.429688 26.28125 17.460938 26.3125 17.460938 26.285156 C 17.460938 26.261719 17.429688 26.1875 17.394531 26.125 C 17.359375 26.0625 17.328125 26.03125 17.328125 26.054688 M 38.75 26.550781 L 38.613281 26.699219 L 38.761719 26.5625 C 38.84375 26.488281 38.914062 26.421875 38.914062 26.414062 C 38.914062 26.378906 38.875 26.410156 38.75 26.550781 M 17.601562 26.648438 C 17.601562 26.695312 17.738281 26.949219 17.761719 26.949219 C 17.773438 26.949219 17.75 26.882812 17.710938 26.800781 C 17.625 26.632812 17.601562 26.597656 17.601562 26.648438 M 37.949219 27.183594 C 37.789062 27.324219 37.789062 27.324219 37.9375 27.226562 C 38.019531 27.171875 38.097656 27.109375 38.113281 27.085938 C 38.15625 27.015625 38.121094 27.035156 37.949219 27.183594 M 37.273438 27.65625 C 37.058594 27.808594 37.027344 27.851562 37.207031 27.746094 C 37.292969 27.699219 37.382812 27.632812 37.410156 27.601562 C 37.476562 27.523438 37.445312 27.535156 37.273438 27.65625 M 37.125 28.4375 C 37.125 28.449219 37.1875 28.492188 37.261719 28.53125 C 37.339844 28.570312 37.398438 28.59375 37.398438 28.578125 C 37.398438 28.566406 37.339844 28.523438 37.261719 28.484375 C 37.1875 28.445312 37.125 28.425781 37.125 28.4375 M 18.929688 28.894531 C 19.015625 29.011719 19.105469 29.125 19.132812 29.140625 C 19.15625 29.152344 19.105469 29.066406 19.019531 28.949219 C 18.933594 28.828125 18.84375 28.71875 18.820312 28.703125 C 18.792969 28.6875 18.84375 28.773438 18.929688 28.894531 M 11.871094 29.167969 C 11.871094 29.214844 12.28125 30.019531 12.308594 30.019531 C 12.328125 30.019531 11.929688 29.199219 11.886719 29.152344 C 11.878906 29.144531 11.871094 29.148438 11.871094 29.167969 M 38.773438 29.441406 C 38.773438 29.453125 38.835938 29.507812 38.914062 29.5625 C 38.988281 29.617188 39.050781 29.648438 39.050781 29.636719 C 39.050781 29.625 38.988281 29.570312 38.914062 29.515625 C 38.835938 29.460938 38.773438 29.429688 38.773438 29.441406 M 19.386719 29.484375 C 19.386719 29.492188 19.453125 29.558594 19.535156 29.632812 L 19.683594 29.769531 L 19.550781 29.621094 C 19.425781 29.480469 19.386719 29.449219 19.386719 29.484375 M 20.074219 30.226562 C 20.3125 30.464844 20.519531 30.664062 20.53125 30.664062 C 20.542969 30.664062 20.359375 30.464844 20.121094 30.226562 C 19.882812 29.988281 19.675781 29.792969 19.664062 29.792969 C 19.652344 29.792969 19.835938 29.988281 20.074219 30.226562 M 40.148438 30.492188 C 40.148438 30.5 40.21875 30.570312 40.300781 30.640625 L 40.449219 30.777344 L 40.3125 30.628906 C 40.1875 30.488281 40.148438 30.457031 40.148438 30.492188 M 40.792969 31.097656 C 40.953125 31.261719 41.097656 31.394531 41.109375 31.394531 C 41.121094 31.394531 41 31.261719 40.835938 31.097656 C 40.675781 30.933594 40.53125 30.800781 40.519531 30.800781 C 40.507812 30.800781 40.628906 30.933594 40.792969 31.097656 M 30.125 31.472656 C 30.167969 31.484375 30.242188 31.484375 30.285156 31.472656 C 30.328125 31.460938 30.292969 31.453125 30.203125 31.453125 C 30.117188 31.453125 30.078125 31.460938 30.125 31.472656 M 13.230469 31.625 C 13.277344 31.703125 13.359375 31.820312 13.417969 31.890625 C 13.476562 31.957031 13.449219 31.894531 13.355469 31.75 C 13.179688 31.476562 13.089844 31.386719 13.230469 31.625 M 41.683594 31.992188 C 41.835938 32.144531 41.96875 32.265625 41.980469 32.265625 C 41.992188 32.265625 41.882812 32.144531 41.730469 31.992188 C 41.582031 31.839844 41.449219 31.714844 41.4375 31.714844 C 41.421875 31.714844 41.535156 31.839844 41.683594 31.992188 M 22.871094 32.199219 C 22.933594 32.234375 23.007812 32.261719 23.03125 32.261719 C 23.054688 32.261719 23.027344 32.234375 22.960938 32.199219 C 22.898438 32.160156 22.828125 32.132812 22.800781 32.132812 C 22.777344 32.132812 22.808594 32.160156 22.871094 32.199219 M 42.027344 32.371094 C 42.027344 32.378906 42.097656 32.449219 42.179688 32.523438 L 42.328125 32.65625 L 42.191406 32.507812 C 42.066406 32.367188 42.027344 32.335938 42.027344 32.371094 M 14.527344 33.382812 C 14.527344 33.390625 14.597656 33.457031 14.679688 33.53125 L 14.828125 33.664062 L 14.691406 33.515625 C 14.566406 33.375 14.527344 33.34375 14.527344 33.382812 M 42.964844 33.519531 C 43.035156 33.613281 43.101562 33.6875 43.113281 33.6875 C 43.148438 33.6875 42.949219 33.417969 42.890625 33.382812 C 42.859375 33.367188 42.894531 33.425781 42.964844 33.519531 M 15.011719 33.917969 C 15.132812 34.042969 15.246094 34.144531 15.257812 34.144531 C 15.273438 34.144531 15.179688 34.042969 15.054688 33.917969 C 14.933594 33.789062 14.820312 33.6875 14.808594 33.6875 C 14.796875 33.6875 14.886719 33.789062 15.011719 33.917969 M 35.613281 33.792969 C 35.613281 33.800781 35.679688 33.867188 35.761719 33.941406 L 35.910156 34.078125 L 35.777344 33.929688 C 35.648438 33.789062 35.613281 33.757812 35.613281 33.792969 M 36.367188 34.511719 C 36.621094 34.765625 36.835938 34.972656 36.847656 34.972656 C 36.859375 34.972656 36.664062 34.765625 36.414062 34.511719 C 36.164062 34.261719 35.949219 34.054688 35.933594 34.054688 C 35.921875 34.054688 36.117188 34.261719 36.367188 34.511719 M 15.488281 34.433594 C 15.679688 34.632812 15.722656 34.671875 15.722656 34.636719 C 15.722656 34.628906 15.621094 34.53125 15.503906 34.417969 L 15.285156 34.214844 L 15.488281 34.433594 M 16.066406 34.972656 C 16.1875 35.097656 16.300781 35.199219 16.3125 35.199219 C 16.324219 35.199219 16.234375 35.097656 16.109375 34.972656 C 15.984375 34.84375 15.875 34.742188 15.863281 34.742188 C 15.847656 34.742188 15.941406 34.84375 16.066406 34.972656 M 36.851562 35.03125 C 36.851562 35.039062 36.917969 35.105469 37 35.179688 L 37.148438 35.316406 L 37.011719 35.164062 C 36.886719 35.027344 36.851562 34.996094 36.851562 35.03125 M 44.34375 35.660156 C 44.382812 35.734375 44.425781 35.796875 44.4375 35.796875 C 44.449219 35.796875 44.429688 35.734375 44.390625 35.660156 C 44.351562 35.582031 44.308594 35.519531 44.296875 35.519531 C 44.28125 35.519531 44.304688 35.582031 44.34375 35.660156 M 37.832031 36.289062 C 37.90625 36.394531 37.972656 36.484375 37.980469 36.484375 C 38.015625 36.484375 37.839844 36.203125 37.769531 36.148438 C 37.734375 36.117188 37.761719 36.179688 37.832031 36.289062 M 17.691406 36.273438 C 17.691406 36.285156 17.808594 36.375 17.957031 36.472656 C 18.277344 36.6875 18.332031 36.722656 18.332031 36.699219 C 18.332031 36.6875 18.1875 36.585938 18.011719 36.464844 C 17.835938 36.347656 17.691406 36.261719 17.691406 36.273438 M 38.476562 37.355469 C 38.515625 37.429688 38.558594 37.492188 38.570312 37.492188 C 38.582031 37.492188 38.5625 37.429688 38.523438 37.355469 C 38.484375 37.277344 38.441406 37.214844 38.429688 37.214844 C 38.417969 37.214844 38.4375 37.277344 38.476562 37.355469 M 19.480469 37.375 C 19.480469 37.386719 19.601562 37.460938 19.753906 37.539062 C 19.90625 37.613281 20.027344 37.667969 20.027344 37.652344 C 20.027344 37.640625 19.90625 37.566406 19.753906 37.492188 C 19.601562 37.414062 19.480469 37.363281 19.480469 37.375 M 20.167969 37.742188 C 20.230469 37.78125 20.300781 37.808594 20.328125 37.808594 C 20.351562 37.808594 20.320312 37.78125 20.257812 37.742188 C 20.195312 37.707031 20.125 37.679688 20.097656 37.679688 C 20.074219 37.679688 20.105469 37.707031 20.167969 37.742188 M 38.824219 38.019531 C 38.824219 38.042969 38.851562 38.117188 38.890625 38.179688 C 38.925781 38.242188 38.957031 38.273438 38.957031 38.246094 C 38.957031 38.222656 38.925781 38.152344 38.890625 38.085938 C 38.851562 38.023438 38.824219 37.992188 38.824219 38.019531 M 26.574219 39.496094 C 26.628906 39.503906 26.710938 39.503906 26.753906 39.492188 C 26.800781 39.484375 26.753906 39.472656 26.652344 39.472656 C 26.550781 39.472656 26.515625 39.484375 26.574219 39.496094 M 27.03125 39.539062 C 27.085938 39.550781 27.179688 39.550781 27.238281 39.539062 C 27.292969 39.53125 27.246094 39.519531 27.132812 39.519531 C 27.019531 39.519531 26.972656 39.53125 27.03125 39.539062 M 39.433594 39.566406 C 39.457031 39.671875 45.972656 39.671875 45.96875 39.566406 C 45.964844 39.519531 45.953125 39.507812 45.941406 39.542969 C 45.910156 39.617188 39.484375 39.628906 39.445312 39.554688 C 39.433594 39.527344 39.429688 39.53125 39.433594 39.566406 M 27.671875 39.585938 C 27.753906 39.597656 27.886719 39.597656 27.96875 39.585938 C 28.050781 39.578125 27.984375 39.570312 27.820312 39.570312 C 27.65625 39.570312 27.589844 39.578125 27.671875 39.585938 M 28.910156 39.632812 C 29.121094 39.644531 29.449219 39.644531 29.644531 39.632812 C 29.839844 39.625 29.667969 39.617188 29.265625 39.617188 C 28.859375 39.617188 28.703125 39.625 28.910156 39.632812 "/>
<path style=" stroke:none;fill-rule:evenodd;fill:rgb(2.352941%,48.627451%,98.823529%);fill-opacity:1;" d="M 35.175781 22.789062 L 35.039062 22.941406 L 35.1875 22.804688 C 35.269531 22.730469 35.335938 22.664062 35.335938 22.65625 C 35.335938 22.621094 35.300781 22.652344 35.175781 22.789062 "/>
<path style=" stroke:none;fill-rule:evenodd;fill:rgb(19.215686%,58.039216%,98.823529%);fill-opacity:1;" d="M 39.988281 25.402344 L 39.851562 25.550781 L 40 25.417969 C 40.082031 25.34375 40.148438 25.277344 40.148438 25.269531 C 40.148438 25.234375 40.113281 25.265625 39.988281 25.402344 M 39.574219 25.816406 L 39.441406 25.964844 L 39.589844 25.828125 C 39.671875 25.757812 39.738281 25.6875 39.738281 25.679688 C 39.738281 25.644531 39.699219 25.675781 39.574219 25.816406 M 41.25 31.511719 C 41.335938 31.597656 41.414062 31.671875 41.429688 31.671875 C 41.441406 31.671875 41.382812 31.597656 41.296875 31.511719 C 41.210938 31.421875 41.128906 31.351562 41.117188 31.351562 C 41.105469 31.351562 41.164062 31.421875 41.25 31.511719 "/>
</g>
</svg>
