<?xml version="1.0" standalone="no"?>
<!DOCTYPE svg PUBLIC "-//W3C//DTD SVG 20010904//EN"
 "http://www.w3.org/TR/2001/REC-SVG-20010904/DTD/svg10.dtd">
<svg version="1.0" xmlns="http://www.w3.org/2000/svg"
 width="1200.000000pt" height="1200.000000pt" viewBox="0 0 1200.000000 1200.000000"
 preserveAspectRatio="xMidYMid meet">

<g transform="translate(0.000000,1200.000000) scale(0.100000,-0.100000)"
fill="#000000" stroke="none">
<path d="M4030 11994 c-1650 -37 -2453 -219 -3030 -688 -496 -403 -769 -975
-894 -1871 -91 -655 -106 -1136 -106 -3435 0 -2025 11 -2526 66 -3095 98
-1022 327 -1623 789 -2079 490 -483 1159 -704 2380 -786 440 -29 650 -32 2470
-37 2190 -6 2626 1 3265 53 1078 86 1721 316 2189 785 487 487 713 1147 796
2324 35 510 38 648 42 2550 6 2385 -5 2864 -77 3515 -66 588 -168 984 -345
1345 -290 590 -776 981 -1468 1181 -422 122 -860 180 -1702 225 -188 10 -3992
21 -4375 13z m-636 -3686 c3 -24 8 -115 11 -203 24 -643 167 -1306 391 -1816
261 -592 659 -1044 1122 -1274 97 -48 234 -102 305 -119 l27 -6 0 1730 0 1730
645 0 645 0 2 -988 3 -988 77 13 c573 96 1202 643 1584 1377 79 152 168 364
209 501 l26 85 644 0 645 0 -6 -32 c-19 -104 -98 -391 -137 -498 -167 -460
-421 -876 -772 -1264 -224 -247 -518 -497 -762 -647 -40 -24 -73 -46 -73 -49
0 -3 39 -25 88 -49 310 -153 686 -433 963 -718 456 -468 776 -1010 972 -1650
l25 -83 -709 0 c-559 0 -711 3 -714 13 -107 318 -281 642 -481 892 -324 404
-768 695 -1244 815 -104 26 -287 60 -327 60 -10 0 -13 -185 -13 -891 l0 -892
-287 6 c-481 10 -841 62 -1263 184 -422 122 -854 334 -1197 589 -871 647
-1442 1692 -1662 3044 -53 325 -85 653 -97 985 l-7 185 681 0 681 0 5 -42z"/>
</g>
</svg>
