<?xml version="1.0" standalone="no"?>
<!DOCTYPE svg PUBLIC "-//W3C//DTD SVG 20010904//EN"
 "http://www.w3.org/TR/2001/REC-SVG-20010904/DTD/svg10.dtd">
<svg version="1.0" xmlns="http://www.w3.org/2000/svg"
 width="55.000000pt" height="55.000000pt" viewBox="0 0 55.000000 55.000000"
 preserveAspectRatio="xMidYMid meet">

<g transform="translate(0.000000,55.000000) scale(0.100000,-0.100000)"
fill="#000000" stroke="none">
<path d="M74 531 c-63 -29 -74 -67 -74 -256 0 -261 14 -275 275 -275 261 0
275 14 275 275 0 261 -14 275 -275 275 -135 0 -166 -3 -201 -19z m86 -181 c0
-27 34 -110 44 -110 3 0 11 -3 20 -6 14 -5 16 5 16 70 l0 76 29 0 c28 0 30 -2
33 -47 l3 -47 38 33 c20 18 37 39 37 47 0 9 11 14 30 14 17 0 30 -5 30 -10 0
-18 -27 -64 -48 -84 l-21 -18 30 -25 c32 -28 62 -77 52 -87 -16 -16 -49 -2
-80 34 -46 54 -73 54 -73 0 l0 -41 -37 7 c-95 17 -147 76 -167 187 l-7 37 36
0 c32 0 35 -2 35 -30z"/>
</g>
</svg>
